PathFileType   4   (X/Y/Z)																																																																																																																	
DataRate	CameraRate	NumFrames	NumMarkers	Units	OrigDataRate	OrigDataStartFrame	OrigNumFrames																																																																																																										
120	120	9	37	mm	120	67	106																																																																																																										
Frame#	Time	midhip	hip_r	hip_l	knee_r	knee_l	ankle_r	ankle_l	midasis	asis_r	asis_l	psis_r	psis_l	epicondLat_r	epicondLat_l	epicondMed_r	epicondMed_l	malleolusLat_r	malleolusLat_l	malleolusMedv_r	malleolusMedv_l	neck	subclavicle_r	subclavicle_l	sternalnotch	xyphoidprocess	thighwand_r	thighwand_l	upperleg1_r	upperleg1_l	upperleg2_r	upperleg2_l	shankwand_r	shankwand_l	lowerleg1_r	lowerleg1_l	toe_r	toe_l																																																																											
 	 	X1	Y1	Z1	X2	Y2	Z2	X3	Y3	Z3	X4	Y4	Z4	X5	Y5	Z5	X6	Y6	Z6	X7	Y7	Z7	X8	Y8	Z8	X9	Y9	Z9	X10	Y10	Z10	X11	Y11	Z11	X12	Y12	Z12	X13	Y13	Z13	X14	Y14	Z14	X15	Y15	Z15	X16	Y16	Z16	X17	Y17	Z17	X18	Y18	Z18	X19	Y19	Z19	X20	Y20	Z20	X21	Y21	Z21	X22	Y22	Z22	X23	Y23	Z23	X24	Y24	Z24	X25	Y25	Z25	X26	Y26	Z26	X27	Y27	Z27	X28	Y28	Z28	X29	Y29	Z29	X30	Y30	Z30	X31	Y31	Z31	X32	Y32	Z32	X33	Y33	Z33	X34	Y34	Z34	X35	Y35	Z35	X36	Y36	Z36	X37	Y37	Z37	

	67	0.66667	1373.045	884.624	-233.748	1380.697	879.407	-184.949	1364.783	870.319	-289.932	1486.795	483.202	-194.275	1364.064	449.435	-325.62	1426.767	70.363	-192.268	1022.668	210.765	-324.699	1454.287	967.121	-257.788	1469.61	975.871	-156.706	1438.964	958.371	-358.87	1263.048	1007.169	-191.841	1250.486	1000.197	-276.015	1497.158	484.599	-135.701	1355.863	454.428	-384.34	1472.124	495.766	-256.664	1377.262	435.657	-272.134	1425.135	70.785	-154.305	1017.91	217.421	-363.342	1427.695	73.611	-224.073	1035.795	213.498	-296.38	1324.37	1454.865	-239.211	1419.891	1381.241	-154.805	1421.999	1385.819	-311.564	1408.681	1385.015	-237.27	1445.672	1183.769	-249.399	1506.458	584.434	-52.282	1514.481	566.207	-362.497	1513.606	650.525	-119.652	1433.96	628.167	-378.195	1524.468	571.493	-148.43	1424.285	541.838	-376.078	1452.973	142.183	-87.886	1174.556	191.658	-334.183	1441.673	201.407	-147.564	1175.171	274.009	-336.214	1549.48	41.536	-195.053	1049.391	88.649	-324.428
	68	0.675	1385.992	887.062	-233.723	1392.761	881.196	-184.824	1376.793	872.63	-289.842	1490.436	482.949	-193.703	1389.221	451.763	-324.886	1426.838	70.472	-192.079	1049.777	210.83	-321.818	1466.638	968.978	-257.289	1482.026	977.233	-156.084	1451.25	960.724	-358.495	1275.722	1009.364	-191.82	1263.421	1002.599	-276.063	1500.784	484.18	-135.123	1380.913	456.409	-383.62	1475.364	496.064	-256.317	1403.064	438.839	-269.659	1425.09	70.891	-154.122	1044.978	217.099	-360.521	1427.822	73.884	-223.855	1063.563	213.156	-293.602	1338.033	1456.984	-238.666	1433.715	1383.066	-154.786	1435.482	1388.047	-311.434	1422.326	1387.059	-237.165	1459.158	1185.821	-249.897	1512.049	584.029	-51.921	1536.384	571.987	-362.053	1520.416	649.88	-119.315	1454.495	631.682	-378.16	1529.56	570.579	-148.192	1447.007	544.759	-374.987	1453.335	142.044	-87.57	1202.064	192.806	-331.123	1442.737	201.415	-147.137	1202.039	275.007	-333.645	1549.504	41.516	-194.968	1082.228	90.14	-323.643
	69	0.68333	1398.618	889.121	-233.823	1404.794	882.825	-184.671	1388.921	874.904	-289.754	1494.063	482.726	-193.158	1414.275	454.347	-324.166	1426.982	70.62	-191.931	1077.675	209.829	-318.965	1479.045	970.77	-256.555	1494.347	978.406	-155.253	1463.742	963.134	-357.858	1288.338	1011.388	-191.851	1276.316	1004.947	-276.138	1504.346	483.778	-134.563	1405.741	458.638	-382.895	1478.505	496.494	-255.966	1428.215	441.909	-268.739	1425.106	71.038	-153.979	1072.75	215.785	-357.702	1427.942	74.172	-223.714	1091.752	212.019	-290.762	1351.631	1458.989	-238.132	1447.401	1384.827	-154.815	1448.878	1390.205	-311.362	1435.861	1389.036	-237.116	1472.553	1187.811	-250.432	1517.498	583.598	-51.538	1558.051	578	-361.951	1527.18	649.299	-118.945	1474.712	635.42	-378.323	1534.542	569.656	-147.943	1469.42	548.295	-374.669	1453.729	141.968	-87.25	1230.282	193.613	-328.38	1443.714	201.433	-146.774	1229.225	275.697	-331.221	1549.534	41.518	-194.886	1115.923	91.113	-322.601
	70	0.69167	1410.832	890.663	-234.1	1416.808	884.281	-184.506	1401.209	877.096	-289.683	1497.657	482.521	-192.633	1439.213	457.128	-323.498	1427.19	70.808	-191.823	1106.369	207.796	-316.189	1491.534	972.462	-255.604	1506.569	979.387	-154.232	1476.5	965.537	-356.976	1300.947	1013.22	-191.966	1289.178	1007.213	-276.255	1507.846	483.386	-134.018	1430.351	461.053	-382.203	1482.079	496.262	-255.278	1453.288	445.139	-268.171	1425.181	71.227	-153.878	1101.232	213.519	-354.933	1428.036	74.477	-223.628	1120.481	210.219	-287.945	1365.128	1460.774	-237.611	1460.999	1386.501	-154.842	1462.211	1392.239	-311.283	1449.319	1390.897	-237.066	1486.046	1189.713	-250.91	1522.849	583.141	-51.131	1579.428	584.193	-362.158	1533.563	648.581	-118.707	1494.617	639.323	-378.633	1539.518	568.7	-147.528	1491.579	552.107	-374.608	1454.161	141.945	-86.927	1259.155	194.096	-326.026	1444.649	201.505	-146.451	1256.743	276.146	-329.053	1549.574	41.539	-194.809	1150.483	91.623	-321.255
	71	0.7	1422.644	891.684	-234.573	1428.783	885.562	-184.294	1413.599	879.155	-289.582	1501.243	482.33	-192.127	1464.011	460.057	-322.901	1427.425	71.035	-191.742	1135.842	204.771	-313.527	1504.065	974.011	-254.467	1518.69	980.182	-153.051	1489.44	967.839	-355.882	1313.552	1014.847	-192.183	1302.003	1009.364	-276.448	1511.302	482.998	-133.487	1454.75	463.607	-381.569	1485.837	495.45	-254.388	1478.198	448.54	-267.759	1425.286	71.455	-153.805	1130.42	210.319	-352.258	1428.137	74.823	-223.528	1149.812	207.775	-285.22	1378.566	1462.366	-237.169	1474.567	1388.089	-154.907	1475.503	1394.117	-311.211	1462.741	1392.626	-237.039	1499.622	1191.502	-251.325	1528.093	582.656	-50.709	1600.484	590.506	-362.596	1539.547	647.628	-118.673	1514.246	643.352	-379.018	1544.398	567.752	-147.047	1513.448	556.04	-374.677	1454.622	141.96	-86.613	1288.657	194.257	-324.028	1445.64	201.664	-146.104	1284.666	276.355	-327.123	1549.627	41.57	-194.737	1185.837	91.675	-319.601
	72	0.70833	1434.704	892.809	-235.343	1440.684	886.664	-184.016	1426.022	881.036	-289.422	1504.846	482.141	-191.626	1488.634	463.112	-322.38	1427.678	71.292	-191.679	1166.08	200.833	-310.994	1516.586	975.374	-253.183	1530.697	980.791	-151.737	1502.475	969.957	-354.63	1326.131	1016.27	-192.522	1314.783	1011.362	-276.776	1514.727	482.605	-132.954	1478.947	466.284	-381	1489.27	495.175	-253.788	1502.23	452.222	-267.598	1425.417	71.712	-153.749	1160.333	206.219	-349.7	1428.274	75.166	-223.414	1179.805	204.598	-282.638	1392.049	1463.808	-236.785	1488.14	1389.53	-155.056	1488.76	1395.799	-311.204	1476.148	1394.189	-237.083	1513.086	1193.103	-251.76	1533.213	582.128	-50.265	1621.236	596.88	-363.152	1545.591	646.612	-118.389	1534.145	647.481	-379.416	1549.13	566.751	-146.616	1535.08	560.089	-374.86	1455.124	142.006	-86.325	1318.777	194.091	-322.26	1446.675	201.868	-145.814	1312.998	276.244	-325.407	1549.695	41.602	-194.669	1221.897	91.251	-317.699
	73	0.71667	1447.099	894.105	-236.337	1452.507	887.568	-183.708	1438.466	882.695	-289.236	1508.361	481.944	-191.106	1513.031	466.278	-321.917	1427.946	71.571	-191.632	1197.064	196.084	-308.588	1529.09	976.513	-251.815	1542.591	981.198	-150.347	1515.589	971.828	-353.284	1338.654	1017.492	-192.987	1327.522	1013.171	-277.28	1518.052	482.207	-132.401	1502.945	469.069	-380.49	1492.78	494.878	-253.202	1525.192	456.08	-267.678	1425.582	71.986	-153.708	1190.988	201.28	-347.27	1428.478	75.48	-223.333	1210.512	200.643	-280.204	1405.515	1465.068	-236.402	1501.671	1390.761	-155.213	1502.019	1397.226	-311.229	1489.535	1395.522	-237.151	1526.457	1194.457	-252.151	1538.22	581.559	-49.79	1641.735	603.256	-363.697	1551.531	645.572	-117.99	1554.363	651.615	-379.804	1553.819	565.615	-146.15	1556.469	564.207	-375.128	1455.676	142.075	-86.078	1349.499	193.607	-320.588	1447.723	202.074	-145.635	1341.705	275.715	-323.802	1549.778	41.626	-194.608	1258.559	90.341	-315.635
	74	0.725	1459.151	894.928	-237.315	1464.267	888.26	-183.41	1450.923	884.098	-289.059	1511.749	481.729	-190.57	1537.118	469.518	-321.485	1428.24	71.873	-191.602	1228.766	190.615	-306.321	1541.575	977.4	-250.436	1554.391	981.397	-148.968	1528.758	973.402	-351.903	1351.089	1018.516	-193.571	1340.227	1014.754	-277.956	1521.25	481.805	-131.833	1526.714	471.933	-380.018	1496.43	494.209	-252.35	1549.04	459.847	-267.424	1425.785	72.278	-153.683	1222.378	195.575	-344.984	1428.782	75.778	-223.262	1241.995	195.938	-277.955	1418.903	1466.129	-236.054	1515.068	1391.749	-155.304	1515.312	1398.383	-311.21	1502.878	1396.601	-237.176	1539.751	1195.546	-252.426	1543.126	580.963	-49.291	1662.005	609.577	-364.094	1557.476	644.567	-117.743	1573.301	655.568	-380.339	1558.522	564.409	-145.578	1577.563	568.316	-375.324	1456.254	142.151	-85.883	1380.798	192.826	-318.947	1448.858	202.21	-145.475	1370.755	274.691	-322.158	1549.864	41.631	-194.555	1295.715	88.941	-313.482
	75	0.73333	1470.632	895.07	-238.141	1475.969	888.742	-183.136	1463.377	885.232	-288.901	1515.234	481.491	-190.067	1560.801	472.782	-321.049	1428.554	72.196	-191.577	1261.17	184.504	-304.209	1554.027	978.033	-249.083	1566.106	981.4	-147.625	1541.948	974.666	-350.541	1363.414	1019.354	-194.272	1352.904	1016.085	-278.778	1524.471	481.381	-131.289	1550.203	474.84	-379.561	1499.504	494.247	-251.585	1573.635	463.622	-266.843	1426.007	72.595	-153.664	1254.488	189.191	-342.856	1429.044	76.111	-223.334	1274.235	190.601	-275.917	1432.266	1467.003	-235.757	1528.423	1392.506	-155.335	1528.568	1399.307	-311.175	1516.182	1397.452	-237.164	1552.934	1196.394	-252.655	1547.916	580.356	-48.763	1682.018	615.8	-364.209	1563.747	643.61	-117.206	1591.186	659.321	-380.958	1563.03	563.177	-144.934	1598.477	572.386	-375.397	1456.852	142.228	-85.742	1412.609	191.784	-317.363	1450.131	202.302	-145.296	1400.187	273.302	-320.582	1549.933	41.609	-194.505	1333.281	87.079	-311.304
